{"glyphs":{":":{"x_min":0,"x_max":285,"ha":285,"o":"m 90 440 q 90 450 93 458 q 97 467 104 473 q 110 480 120 484 q 130 488 143 488 q 155 488 165 484 q 174 480 181 473 q 188 467 191 458 q 195 450 195 440 q 195 431 191 423 q 188 414 181 407 q 174 401 165 397 q 155 393 143 393 q 130 393 120 397 q 110 401 104 407 q 97 414 93 423 q 90 431 90 440 z m 90 47 q 90 56 93 65 q 97 73 104 80 q 110 86 120 91 q 130 95 143 95 q 155 95 165 91 q 174 86 181 80 q 188 73 191 65 q 195 56 195 47 q 195 38 191 30 q 188 21 181 14 q 174 8 165 4 q 155 0 143 0 q 130 0 120 4 q 110 8 104 14 q 97 21 93 30 q 90 38 90 47 z"},"$":{"x_min":0,"x_max":622,"ha":622,"o":"m 259 -20 q 234 -20 210 -16 q 186 -12 164 -7 q 142 -2 122 3 q 103 9 87 14 q 72 20 66 29 q 59 39 59 49 q 59 62 67 72 q 75 81 89 81 q 96 81 102 79 q 121 73 139 68 q 157 62 178 58 q 198 53 224 51 q 249 48 283 48 q 315 48 345 56 q 375 63 399 78 q 422 93 437 115 q 451 138 451 167 q 451 188 444 205 q 437 221 425 234 q 412 247 395 257 q 377 268 357 276 q 324 290 287 301 q 251 312 216 323 q 182 334 150 349 q 119 363 96 384 q 72 405 58 435 q 44 464 44 506 q 44 547 62 579 q 79 612 108 635 q 138 658 177 672 q 215 686 259 689 l 259 750 q 259 763 267 770 q 275 776 286 776 q 295 776 304 770 q 312 763 312 750 l 312 689 q 352 687 395 680 q 437 673 473 660 q 487 655 493 646 q 500 636 500 625 q 500 613 492 603 q 483 594 469 594 q 463 594 457 596 q 438 600 417 604 q 396 609 374 612 q 353 616 332 618 q 311 620 292 620 q 265 620 237 614 q 209 607 186 595 q 163 583 148 563 q 133 543 133 516 q 133 481 151 458 q 168 434 197 418 q 226 401 262 389 q 299 377 337 365 q 375 354 412 339 q 449 325 478 303 q 506 282 524 251 q 542 220 542 175 q 542 132 523 97 q 504 63 473 38 q 441 14 400 -1 q 358 -16 312 -20 l 312 -86 q 312 -99 303 -106 q 294 -113 284 -113 q 274 -113 267 -106 q 259 -100 259 -86 z"},"?":{"x_min":0,"x_max":504,"ha":504,"o":"m 108 651 q 104 650 101 650 q 87 650 78 661 q 70 672 70 686 q 70 697 77 708 q 84 718 100 722 q 134 731 169 734 q 205 737 238 737 q 278 737 314 727 q 349 716 376 693 q 403 671 418 637 q 434 603 434 557 q 434 525 426 501 q 418 476 404 455 q 390 434 372 414 q 353 395 333 375 q 309 351 292 335 q 275 320 264 308 q 253 295 248 284 q 243 272 242 256 l 242 257 l 242 249 q 242 243 242 233 q 243 224 243 208 q 243 191 231 182 q 219 173 205 173 q 188 173 180 180 q 172 188 169 201 q 166 214 167 234 q 167 254 167 279 q 168 303 182 324 q 195 346 215 366 q 235 386 258 406 q 281 426 301 448 q 321 471 334 496 q 347 521 347 551 q 347 583 336 605 q 325 627 307 640 q 290 653 266 658 q 243 664 219 664 q 212 664 199 663 q 187 662 171 661 q 156 659 139 657 q 123 654 108 651 z m 155 43 q 155 52 158 60 q 162 69 168 75 q 175 82 185 86 q 194 90 207 90 q 220 90 229 86 q 239 82 246 75 q 253 69 256 60 q 260 52 260 43 q 260 34 256 25 q 253 16 246 10 q 239 3 229 -1 q 220 -5 207 -5 q 194 -5 185 -1 q 175 3 168 10 q 162 16 158 25 q 155 34 155 43 z"},"<":{"x_min":0,"x_max":654,"ha":654,"o":"m 96 205 q 81 211 74 221 q 67 231 67 242 q 67 252 75 263 q 82 273 98 280 l 531 465 q 537 467 543 467 q 558 467 567 457 q 576 446 576 434 q 576 426 572 418 q 567 411 556 407 l 165 242 l 558 67 q 568 62 572 55 q 577 48 577 40 q 577 28 568 18 q 559 8 545 8 q 539 8 532 11 z"},"'":{"x_min":0,"x_max":285,"ha":285,"o":"m 103 688 l 103 690 q 103 706 115 714 q 127 723 143 723 q 158 723 170 715 q 183 707 183 690 l 183 688 l 169 517 q 167 501 160 493 q 152 485 142 485 q 133 485 125 493 q 117 501 116 517 z"},"=":{"x_min":0,"x_max":654,"ha":654,"o":"m 111 114 q 97 114 87 123 q 77 133 77 146 q 77 160 87 170 q 97 179 111 179 l 543 179 q 558 179 567 170 q 577 160 577 146 q 577 133 567 123 q 558 114 543 114 z m 111 305 q 97 305 87 315 q 77 325 77 338 q 77 352 87 362 q 97 371 111 371 l 543 371 q 558 371 567 362 q 577 352 577 338 q 577 325 567 315 q 558 305 543 305 z"},"a":{"x_min":0,"x_max":509,"ha":509,"o":"m 361 336 q 361 364 353 383 q 345 402 330 413 q 315 424 295 429 q 274 434 250 434 q 225 434 205 431 q 185 429 168 422 q 152 416 137 409 q 123 402 108 393 q 100 388 91 388 q 79 388 71 396 q 62 405 62 416 q 62 427 72 437 q 103 466 148 480 q 194 495 252 495 q 294 495 328 485 q 362 476 386 455 q 411 435 424 404 q 437 373 437 329 l 436 35 q 436 18 424 9 q 412 0 398 0 q 384 0 373 8 q 361 16 361 33 l 361 78 q 351 57 334 40 q 317 23 296 12 q 275 1 250 -5 q 226 -11 201 -11 q 166 -11 135 -1 q 105 8 83 27 q 60 46 47 73 q 34 100 34 135 q 34 180 54 210 q 74 241 109 260 q 145 278 195 287 q 245 295 306 295 q 318 295 333 294 q 347 294 361 293 z m 360 236 q 338 235 312 236 q 285 236 258 234 q 230 233 204 228 q 178 223 158 212 q 138 202 125 183 q 113 165 113 137 q 113 114 122 98 q 130 83 144 72 q 158 61 177 56 q 197 50 218 50 q 247 50 272 60 q 298 69 317 86 q 336 103 347 130 q 359 157 360 194 z"},"L":{"x_min":0,"x_max":562,"ha":562,"o":"m 139 0 q 130 0 122 3 q 114 6 108 12 q 103 18 99 26 q 95 34 95 42 l 95 655 q 95 666 99 673 q 103 681 109 686 q 115 691 123 694 q 131 696 139 696 q 155 696 169 686 q 182 676 182 655 l 182 71 l 498 71 q 517 71 525 60 q 534 49 534 36 q 534 22 525 11 q 516 0 498 0 z"},"3":{"x_min":0,"x_max":571,"ha":571,"o":"m 257 389 q 287 389 315 396 q 343 404 365 419 q 386 434 399 457 q 412 479 412 511 q 412 540 401 562 q 390 583 371 599 q 352 614 327 621 q 302 629 275 629 q 249 629 224 624 q 198 619 177 613 q 156 606 140 601 q 125 596 119 596 q 103 596 93 608 q 83 619 83 633 q 83 643 89 652 q 94 660 106 666 q 143 682 183 692 q 224 702 271 702 q 317 702 359 691 q 400 679 432 656 q 464 632 482 597 q 501 561 501 512 q 501 481 490 456 q 480 431 462 411 q 443 391 419 378 q 395 365 367 359 l 367 357 q 399 350 426 335 q 453 319 472 297 q 492 274 502 245 q 513 215 513 181 q 513 130 493 94 q 474 57 441 34 q 409 11 367 0 q 326 -11 281 -11 q 265 -11 245 -9 q 225 -6 203 -2 q 182 2 162 9 q 142 15 126 23 q 110 31 101 41 q 91 51 91 62 q 91 75 101 86 q 110 97 126 97 q 132 97 138 95 q 150 89 166 83 q 182 78 200 73 q 219 68 239 65 q 260 62 281 62 q 313 62 340 70 q 366 77 385 92 q 403 107 413 129 q 423 151 423 180 q 423 214 410 240 q 397 266 375 284 q 354 302 325 312 q 296 321 265 321 l 228 321 q 212 321 204 331 q 195 341 195 354 q 195 367 204 377 q 212 388 228 388 z"},";":{"x_min":0,"x_max":285,"ha":285,"o":"m 103 451 q 103 460 106 469 q 109 477 116 484 q 123 490 132 494 q 142 498 155 498 q 167 498 177 494 q 187 490 194 484 q 201 477 204 469 q 208 460 208 451 q 208 442 204 433 q 201 424 194 418 q 187 411 177 407 q 167 403 155 403 q 142 403 132 407 q 123 411 116 418 q 109 424 106 433 q 103 442 103 451 z m 139 -117 l 71 -117 l 117 90 l 213 90 z"},"J":{"x_min":0,"x_max":517,"ha":517,"o":"m 346 656 q 346 666 349 674 q 353 681 359 686 q 366 691 374 694 q 381 696 390 696 q 398 696 406 694 q 414 691 420 686 q 426 681 429 674 q 433 666 433 656 l 433 215 q 433 153 415 110 q 396 67 366 41 q 336 14 298 1 q 259 -11 218 -11 q 188 -11 159 -2 q 130 6 106 22 q 82 39 63 62 q 44 86 34 117 q 29 128 29 138 q 29 154 40 163 q 51 172 64 172 q 73 172 82 168 q 90 163 95 152 q 111 108 141 83 q 170 59 218 59 q 279 59 312 98 q 346 137 346 223 z"},"V":{"x_min":0,"x_max":629,"ha":629,"o":"m 317 75 l 318 75 l 527 667 q 533 681 543 689 q 554 696 567 696 q 575 696 582 694 q 589 691 595 686 q 601 681 604 674 q 607 667 607 660 q 607 656 607 653 q 606 650 605 646 l 386 52 q 376 23 358 11 q 339 0 314 0 q 292 0 273 11 q 255 22 245 52 l 23 644 q 22 646 21 650 q 21 653 21 656 q 21 665 25 672 q 29 680 35 685 q 42 691 50 694 q 58 697 66 697 q 79 697 89 690 q 100 683 104 669 z"},"\"":{"x_min":0,"x_max":309,"ha":309,"o":"m 178 688 l 178 690 q 178 706 191 714 q 203 723 218 723 q 233 723 246 715 q 258 707 258 690 l 258 688 l 245 517 q 244 501 235 493 q 227 485 218 485 q 208 485 200 493 q 192 501 191 517 z m 48 688 l 48 690 q 48 706 60 714 q 73 723 88 723 q 103 723 115 715 q 127 707 127 690 l 127 688 l 114 517 q 113 501 105 493 q 97 485 87 485 q 78 485 70 493 q 62 501 61 517 z"},"7":{"x_min":0,"x_max":571,"ha":571,"o":"m 250 24 q 245 11 234 6 q 223 0 212 0 q 203 0 195 3 q 187 6 180 11 q 173 17 169 24 q 165 32 165 41 q 165 48 169 58 l 418 625 l 86 625 q 68 625 59 636 q 50 647 50 661 q 50 674 59 685 q 68 696 86 696 l 459 696 q 486 696 498 684 q 510 671 510 652 q 510 636 502 619 z"},"S":{"x_min":0,"x_max":622,"ha":622,"o":"m 160 524 q 160 493 177 470 q 194 447 222 431 q 250 415 286 404 q 322 392 359 380 q 401 367 439 352 q 477 337 505 314 q 534 292 551 259 q 568 227 568 179 q 568 138 549 102 q 529 65 494 40 q 458 15 411 2 q 363 -11 307 -11 q 267 -11 231 -4 q 196 3 166 16 q 135 28 110 45 q 85 62 66 81 q 62 85 61 90 q 59 95 59 101 q 59 107 62 115 q 64 122 69 127 q 73 133 79 136 q 84 140 89 140 q 98 140 107 134 q 116 127 125 121 q 141 110 159 99 q 178 88 200 79 q 223 71 250 66 q 277 61 310 61 q 346 61 376 68 q 407 75 430 90 q 452 104 465 126 q 478 148 478 173 q 478 208 461 232 q 444 256 416 272 q 388 288 353 300 q 317 311 280 323 q 239 336 201 352 q 164 368 135 391 q 105 414 88 446 q 71 478 71 520 q 71 560 91 595 q 111 630 144 654 q 178 678 221 690 q 265 702 312 702 q 385 702 443 679 q 500 656 544 609 q 548 604 550 599 q 551 594 551 587 q 551 582 549 576 q 547 569 543 564 q 539 559 533 556 q 526 552 518 552 q 503 552 486 570 q 470 582 453 593 q 436 604 415 612 q 395 620 371 625 q 348 629 320 629 q 293 629 264 623 q 236 617 213 604 q 189 590 175 569 q 160 548 160 524 z"},"}":{"x_min":0,"x_max":298,"ha":298,"o":"m 66 -40 q 87 -40 97 -20 q 106 -1 106 34 l 106 173 q 106 208 115 233 q 125 257 136 274 q 148 290 160 299 q 171 307 176 310 q 171 314 160 323 q 148 331 137 347 q 125 363 116 387 q 106 411 106 447 l 106 587 q 106 623 97 642 q 87 661 66 661 l 35 661 q 21 661 14 670 q 7 680 7 691 q 7 703 14 712 q 21 722 35 722 l 92 722 q 109 722 126 714 q 143 706 156 691 q 169 677 178 656 q 186 636 186 611 l 186 465 q 186 438 188 416 q 191 395 199 379 q 207 363 220 354 q 234 345 257 342 q 273 342 281 332 q 290 322 290 309 q 290 297 281 287 q 273 276 257 276 q 234 274 220 265 q 207 255 199 240 q 191 225 188 203 q 186 182 186 155 l 186 10 q 186 -15 178 -35 q 169 -56 156 -70 q 143 -85 126 -93 q 109 -101 92 -101 l 35 -101 q 21 -101 14 -92 q 7 -82 7 -70 q 7 -59 14 -49 q 21 -40 35 -40 z"},"Z":{"x_min":0,"x_max":569,"ha":569,"o":"m 87 0 q 73 0 63 4 q 54 7 47 13 q 41 20 38 28 q 35 36 35 44 q 35 61 44 75 l 428 625 l 74 625 q 57 625 48 636 q 39 647 39 661 q 39 674 47 685 q 56 696 74 696 l 491 696 q 512 696 524 685 q 536 673 536 656 q 536 648 533 639 q 530 630 524 622 l 139 71 l 495 71 q 513 71 522 60 q 531 49 531 36 q 531 22 522 11 q 513 0 495 0 z"},"x":{"x_min":0,"x_max":504,"ha":504,"o":"m 203 248 l 62 424 q 58 430 56 435 q 55 440 55 446 q 55 454 58 460 q 62 467 67 472 q 73 478 81 481 q 88 484 96 484 q 104 484 113 480 q 121 476 127 467 l 256 297 l 389 469 q 395 477 402 480 q 409 484 417 484 q 430 484 441 474 q 452 464 452 451 q 452 441 444 432 l 303 250 l 454 59 q 462 49 462 38 q 462 30 458 23 q 455 17 449 11 q 443 6 436 3 q 428 0 420 0 q 412 0 404 4 q 396 8 389 17 l 248 202 l 106 14 q 95 0 80 0 q 72 0 65 3 q 59 6 53 10 q 48 15 45 21 q 42 28 42 35 q 42 44 48 53 z"},")":{"x_min":0,"x_max":289,"ha":289,"o":"m 113 -85 q 108 -97 100 -102 q 91 -107 83 -107 q 71 -107 62 -99 q 52 -91 52 -79 q 52 -73 55 -65 q 90 30 110 124 q 130 219 130 310 q 130 401 110 496 q 90 591 55 687 q 52 693 52 699 q 52 712 62 720 q 71 729 83 729 q 92 729 100 723 q 108 718 113 707 q 133 659 152 610 q 170 561 184 511 q 198 461 206 410 q 214 360 214 309 q 214 258 206 208 q 198 158 184 109 q 170 60 152 11 q 133 -38 113 -85 z"},"&":{"x_min":0,"x_max":739,"ha":739,"o":"m 593 430 q 595 447 605 455 q 616 463 629 463 q 636 463 643 460 q 650 458 656 453 q 661 449 665 442 q 668 436 668 427 q 668 425 668 424 q 668 422 667 420 q 665 395 661 362 q 658 328 650 292 q 642 256 629 219 q 617 182 597 149 l 675 65 q 680 59 683 52 q 685 46 685 39 q 685 31 682 23 q 678 16 673 10 q 667 4 659 0 q 652 -3 644 -3 q 637 -3 629 0 q 622 3 615 11 l 542 91 q 498 41 444 13 q 391 -14 320 -14 q 265 -14 216 0 q 167 15 130 42 q 94 69 72 108 q 51 148 51 198 q 51 240 67 272 q 83 304 109 330 q 134 356 167 378 q 199 400 231 422 q 213 441 196 462 q 179 482 165 505 q 151 527 142 551 q 134 575 134 602 q 134 636 148 661 q 163 687 187 704 q 211 720 242 729 q 272 737 305 737 q 336 737 367 729 q 398 721 423 705 q 448 689 463 664 q 478 639 478 605 q 478 574 467 547 q 456 520 437 497 q 418 474 394 453 q 370 433 345 415 l 544 203 q 556 227 564 255 q 573 284 579 313 q 585 343 589 373 q 593 403 593 430 z m 281 370 q 263 359 239 341 q 214 323 191 302 q 169 280 153 256 q 138 232 138 210 q 138 173 153 144 q 167 115 192 95 q 217 75 249 64 q 281 54 316 54 q 344 54 369 60 q 394 66 415 77 q 437 88 457 104 q 477 120 497 140 z m 219 601 q 219 583 226 564 q 233 545 245 527 q 256 509 270 492 q 283 476 296 463 q 312 478 329 493 q 346 508 360 524 q 375 541 384 560 q 394 579 394 601 q 394 618 386 631 q 379 645 367 653 q 354 662 339 666 q 324 670 308 670 q 291 670 275 667 q 259 663 246 654 q 234 646 227 633 q 219 620 219 601 z"},"_":{"x_min":0,"x_max":500,"ha":500,"o":"m 27 -124 q 13 -124 6 -115 q 0 -106 0 -95 q 0 -84 6 -75 q 13 -66 27 -66 l 471 -66 q 485 -66 492 -75 q 500 -84 500 -95 q 500 -106 492 -115 q 485 -124 471 -124 z"},"v":{"x_min":0,"x_max":501,"ha":501,"o":"m 322 59 q 309 28 294 14 q 279 0 253 0 q 228 0 213 14 q 198 28 185 59 l 28 435 q 25 442 25 449 q 25 457 28 463 q 32 469 38 474 q 43 479 51 481 q 58 484 65 484 q 76 484 86 478 q 95 472 100 459 l 253 90 l 400 459 q 405 472 415 478 q 425 484 436 484 q 443 484 451 481 q 458 479 464 474 q 469 470 473 463 q 476 457 476 449 q 476 442 473 435 z"},"O":{"x_min":0,"x_max":780,"ha":780,"o":"m 156 346 q 156 295 169 242 q 182 189 210 149 q 239 108 283 84 q 328 60 390 60 q 452 60 497 84 q 541 108 570 149 q 598 189 611 242 q 625 295 625 346 q 625 396 611 449 q 598 502 570 542 q 541 583 497 607 q 452 631 390 631 q 328 631 283 607 q 239 583 210 542 q 182 502 169 449 q 156 396 156 346 z m 62 346 q 62 420 84 487 q 105 554 147 602 q 188 650 250 676 q 311 702 390 702 q 469 702 530 676 q 591 650 633 602 q 674 554 695 487 q 717 420 717 346 q 717 271 695 204 q 674 137 633 90 q 591 42 530 16 q 469 -11 390 -11 q 311 -11 250 16 q 188 42 147 90 q 105 137 84 204 q 62 271 62 346 z"},"(":{"x_min":0,"x_max":289,"ha":289,"o":"m 177 -85 q 157 -38 138 11 q 120 60 106 109 q 92 158 84 208 q 76 258 76 309 q 76 360 84 410 q 92 461 106 511 q 120 561 138 610 q 157 659 177 707 q 182 718 190 724 q 198 729 207 729 q 219 729 228 721 q 238 712 238 699 q 238 696 237 693 q 237 690 235 687 q 200 591 180 496 q 160 401 160 310 q 160 219 180 124 q 200 30 235 -65 q 237 -71 237 -79 q 237 -91 228 -99 q 219 -107 207 -107 q 198 -107 190 -102 q 182 -97 177 -85 z"},"C":{"x_min":0,"x_max":676,"ha":676,"o":"m 58 344 q 58 413 77 479 q 96 545 135 595 q 175 645 234 673 q 294 702 375 702 q 424 702 468 691 q 512 681 550 664 q 561 658 566 648 q 571 639 571 629 q 571 615 563 604 q 555 594 541 594 q 535 594 529 596 q 491 610 452 618 q 413 626 381 626 q 337 626 303 615 q 269 603 243 583 q 218 562 200 535 q 182 507 171 475 q 160 443 155 409 q 150 375 150 345 q 150 315 155 281 q 160 247 171 215 q 182 183 200 156 q 218 128 243 108 q 269 87 303 76 q 337 64 381 64 q 397 64 417 67 q 437 69 458 75 q 479 81 500 89 q 521 97 542 109 q 546 111 551 112 q 555 113 559 113 q 572 113 580 104 q 588 94 588 82 q 588 67 578 55 q 568 43 551 33 q 534 22 511 14 q 489 6 466 1 q 442 -5 419 -8 q 395 -11 375 -11 q 294 -11 234 18 q 174 46 135 96 q 96 145 77 211 q 58 276 58 344 z"},"W":{"x_min":0,"x_max":1003,"ha":1003,"o":"m 500 612 l 321 55 q 313 28 292 14 q 271 0 247 0 q 224 0 205 13 q 187 26 179 55 l 21 644 q 19 649 19 655 q 19 664 23 672 q 28 679 35 685 q 42 690 50 693 q 59 696 67 696 q 79 696 88 690 q 97 684 101 669 l 253 75 l 439 646 q 446 671 464 684 q 481 696 501 696 q 521 696 539 684 q 556 671 564 646 l 757 75 l 908 667 q 912 683 922 689 q 932 696 944 696 q 952 696 960 694 q 967 691 973 686 q 979 681 983 674 q 987 667 987 659 q 987 657 986 654 q 986 651 985 648 l 825 55 q 821 42 814 31 q 807 21 797 14 q 788 7 777 3 q 766 0 754 0 q 731 0 711 14 q 691 27 683 55 z"},"A":{"x_min":0,"x_max":680,"ha":680,"o":"m 653 53 q 655 44 655 39 q 655 30 651 23 q 647 16 641 10 q 634 5 626 3 q 618 0 609 0 q 598 0 587 6 q 577 12 573 26 l 510 182 l 165 182 l 103 26 q 98 12 88 6 q 79 0 67 0 q 59 0 51 3 q 43 5 37 10 q 31 16 27 23 q 23 30 23 38 q 23 44 26 53 l 259 620 q 268 645 277 660 q 287 675 296 683 q 306 691 316 694 q 327 696 339 696 q 351 696 362 694 q 372 691 382 683 q 392 674 401 659 q 410 645 419 620 z m 337 625 l 189 248 l 486 248 l 338 625 z"},"f":{"x_min":0,"x_max":340,"ha":340,"o":"m 196 427 l 196 39 q 196 20 184 10 q 172 0 157 0 q 149 0 143 2 q 136 5 130 10 q 125 14 122 21 q 118 29 118 39 l 118 427 l 52 427 q 37 427 29 436 q 21 445 21 456 q 21 466 29 475 q 37 484 52 484 l 118 484 l 118 538 q 118 585 127 618 q 135 650 151 670 q 167 690 190 699 q 212 708 240 708 q 259 708 279 704 q 299 701 319 695 q 329 692 334 685 q 338 677 338 669 q 338 658 332 649 q 325 641 312 641 q 304 641 297 642 q 291 643 284 644 q 278 645 272 646 q 266 646 258 646 q 238 646 226 639 q 213 632 207 615 q 200 599 198 570 q 196 542 196 500 l 196 484 l 280 484 q 296 484 304 475 q 312 466 312 456 q 312 444 304 436 q 296 427 280 427 z"},"Q":{"x_min":0,"x_max":780,"ha":780,"o":"m 62 343 q 62 420 84 487 q 105 554 147 602 q 188 650 250 676 q 311 702 390 702 q 469 702 530 676 q 591 650 632 602 q 674 555 695 488 q 716 421 716 344 q 716 306 708 266 q 699 226 684 190 q 668 155 646 125 q 624 95 597 69 l 708 69 q 725 69 734 59 q 743 48 743 35 q 743 21 734 11 q 725 0 708 0 q 704 0 685 0 q 667 0 642 0 q 617 0 588 0 q 560 0 536 0 q 512 0 495 0 q 479 0 478 0 q 453 -5 432 -8 q 412 -11 390 -11 q 311 -11 250 15 q 188 40 147 88 q 105 135 84 202 q 62 269 62 343 z m 156 343 q 156 293 169 240 q 182 187 210 147 q 239 106 283 82 q 328 58 390 58 q 452 58 497 82 q 541 106 570 147 q 598 187 611 240 q 625 293 625 343 q 625 396 611 449 q 598 502 570 542 q 541 583 497 607 q 452 631 390 631 q 328 631 283 607 q 239 583 210 542 q 182 502 169 449 q 156 396 156 343 z"},"w":{"x_min":0,"x_max":839,"ha":839,"o":"m 422 410 l 286 42 q 278 18 263 9 q 248 0 230 0 q 214 0 200 9 q 186 17 179 40 l 33 433 q 30 441 30 446 q 30 455 33 462 q 37 469 42 474 q 47 479 54 481 q 61 484 68 484 q 80 484 90 478 q 100 471 104 457 l 236 84 l 369 445 q 376 467 391 476 q 406 484 424 484 q 443 484 458 476 q 473 467 480 445 l 607 88 l 736 457 q 741 471 751 477 q 760 484 771 484 q 787 484 798 474 q 809 463 809 448 q 809 441 807 433 l 658 40 q 651 18 637 9 q 624 0 607 0 q 599 0 591 2 q 583 3 576 8 q 570 13 564 21 q 559 30 555 42 z"},"-":{"x_min":0,"x_max":291,"ha":291,"o":"m 51 223 q 36 223 25 233 q 15 243 15 257 q 15 272 25 282 q 35 292 51 292 l 241 292 q 256 292 266 282 q 276 272 276 257 q 276 243 266 233 q 256 223 241 223 z"},"E":{"x_min":0,"x_max":613,"ha":613,"o":"m 140 0 q 132 0 124 3 q 117 7 111 13 q 104 19 101 26 q 97 34 97 42 l 97 654 q 97 662 100 670 q 103 677 109 683 q 114 689 122 693 q 129 696 138 696 l 502 696 q 520 696 529 685 q 538 674 538 661 q 538 647 529 636 q 520 625 502 625 l 183 625 l 183 394 l 486 394 q 505 394 514 383 q 522 372 522 358 q 522 345 513 334 q 504 323 486 323 l 183 323 l 183 71 l 516 71 q 534 71 542 60 q 551 49 551 36 q 551 22 542 11 q 534 0 516 0 z"},"s":{"x_min":0,"x_max":500,"ha":500,"o":"m 139 365 q 139 348 147 336 q 155 325 170 317 q 185 309 205 303 q 226 297 251 291 q 276 285 305 278 q 334 271 366 260 q 407 247 431 217 q 456 187 456 146 q 456 105 438 75 q 420 46 390 27 q 361 8 322 -1 q 284 -11 242 -11 q 208 -11 174 -4 q 140 3 114 14 q 87 24 71 38 q 55 52 55 65 q 55 76 64 84 q 73 92 87 92 q 95 92 110 85 q 125 78 146 71 q 167 63 195 56 q 222 50 255 50 q 278 50 300 54 q 321 59 339 70 q 356 81 366 97 q 377 113 377 137 q 377 165 359 181 q 340 197 311 207 q 285 215 256 221 q 227 228 199 234 q 171 241 146 250 q 121 258 102 273 q 83 287 71 308 q 60 330 60 361 q 60 398 76 424 q 92 449 119 465 q 146 481 180 488 q 215 495 251 495 q 296 495 329 487 q 362 479 383 469 q 405 458 415 445 q 426 433 426 422 q 426 412 417 405 q 408 397 396 397 q 390 397 384 399 q 378 400 373 404 q 361 412 349 417 q 336 423 322 427 q 307 431 289 432 q 271 434 249 434 q 227 434 207 431 q 188 427 172 419 q 157 412 148 398 q 139 384 139 365 z"},">":{"x_min":0,"x_max":654,"ha":654,"o":"m 558 279 q 573 272 580 262 q 586 251 586 242 q 586 230 579 220 q 572 210 556 203 l 123 19 q 116 16 110 16 q 96 16 87 26 q 78 37 78 49 q 78 58 82 65 q 87 72 97 77 l 489 242 l 96 416 q 86 420 82 428 q 77 435 77 443 q 77 456 86 466 q 94 476 108 476 q 115 476 122 473 z"},"l":{"x_min":0,"x_max":231,"ha":231,"o":"m 77 657 q 77 676 89 686 q 102 696 116 696 q 124 696 130 693 q 137 691 143 686 q 148 681 151 674 q 155 667 155 657 l 155 40 q 155 20 142 10 q 129 0 115 0 q 100 0 88 10 q 77 19 77 40 z"},"8":{"x_min":0,"x_max":571,"ha":571,"o":"m 191 360 q 161 363 136 379 q 110 396 92 416 q 73 437 63 463 q 52 490 52 520 q 52 566 72 600 q 91 634 124 657 q 156 680 198 691 q 240 702 285 702 q 331 702 373 691 q 415 680 447 657 q 479 634 499 600 q 519 566 519 520 q 519 489 508 463 q 498 438 479 418 q 461 399 436 383 q 410 366 380 360 l 380 359 q 450 339 490 295 q 529 250 529 184 q 529 137 509 100 q 489 62 456 38 q 422 14 378 1 q 333 -11 285 -11 q 237 -11 193 1 q 148 14 115 38 q 82 62 62 100 q 42 137 42 184 q 42 216 52 243 q 62 270 82 291 q 102 312 129 332 q 157 351 191 358 z m 136 518 q 136 488 147 466 q 159 444 178 429 q 198 414 226 407 q 253 399 285 399 q 318 399 345 407 q 373 414 392 429 q 412 444 423 466 q 435 488 435 518 q 435 550 422 573 q 409 596 387 610 q 366 625 339 631 q 312 638 285 638 q 258 638 231 631 q 205 625 184 610 q 163 596 149 573 q 136 550 136 518 z m 130 187 q 130 155 143 130 q 156 105 178 89 q 199 73 227 65 q 255 58 285 58 q 315 58 344 65 q 372 73 393 89 q 415 105 427 130 q 440 155 440 187 q 440 221 427 246 q 415 271 393 287 q 372 303 344 313 q 315 324 285 324 q 255 324 227 313 q 199 303 178 287 q 156 271 143 246 q 130 221 130 187 z"},"\\":{"x_min":0,"x_max":287,"ha":287,"o":"m -7 687 q -10 695 -10 700 q -10 715 1 724 q 12 732 25 732 q 35 732 45 726 q 55 720 59 708 l 294 -7 q 296 -13 296 -20 q 296 -35 286 -43 q 276 -52 263 -52 q 253 -52 244 -46 q 234 -40 230 -27 z"},"e":{"x_min":0,"x_max":553,"ha":553,"o":"m 508 257 q 508 246 501 237 q 494 229 477 229 l 128 229 q 129 182 141 149 q 153 116 177 94 q 201 72 229 61 q 258 50 292 50 q 327 50 364 63 q 400 76 437 101 q 442 104 447 106 q 452 107 457 107 q 468 107 475 100 q 481 93 481 83 q 481 77 479 71 q 477 65 471 60 q 451 41 428 27 q 405 14 381 5 q 357 -3 333 -7 q 309 -11 285 -11 q 236 -11 192 7 q 148 24 116 57 q 83 89 65 136 q 46 184 46 242 q 46 292 61 338 q 76 384 105 419 q 134 454 177 474 q 221 495 277 495 q 336 495 380 477 q 423 458 451 427 q 479 395 493 352 q 507 308 508 257 z m 432 280 q 429 314 419 343 q 408 371 389 392 q 370 412 343 423 q 315 434 278 434 q 247 434 220 422 q 194 410 175 388 q 156 367 144 339 q 132 312 130 280 z"},"b":{"x_min":0,"x_max":565,"ha":565,"o":"m 143 35 q 142 18 130 9 q 118 0 104 0 q 90 0 79 9 q 67 18 67 37 l 67 660 q 67 678 80 687 q 92 696 107 696 q 122 696 134 687 q 146 678 146 660 l 146 405 q 159 428 178 445 q 197 462 220 473 q 243 484 268 489 q 293 495 318 495 q 372 495 410 474 q 449 453 474 418 q 499 384 511 339 q 523 293 523 244 q 523 197 511 151 q 500 105 475 70 q 451 34 412 11 q 374 -11 321 -11 q 266 -11 221 12 q 175 35 143 84 z m 146 251 q 146 209 153 173 q 161 136 179 109 q 198 82 228 66 q 259 50 305 50 q 332 50 353 58 q 373 67 388 82 q 403 97 413 116 q 423 136 429 157 q 435 179 438 202 q 440 226 440 248 q 440 282 433 316 q 425 350 409 376 q 392 402 365 418 q 337 434 297 434 q 255 434 227 419 q 198 404 180 379 q 162 354 154 321 q 146 287 146 251 z"},"%":{"x_min":0,"x_max":1006,"ha":1006,"o":"m 272 634 q 245 634 227 622 q 208 610 197 591 q 185 572 180 547 q 175 523 175 498 q 175 473 180 448 q 185 424 197 405 q 208 385 227 373 q 245 361 272 361 q 299 361 318 373 q 336 385 348 405 q 359 424 365 448 q 370 473 370 498 q 370 523 365 547 q 359 572 348 591 q 336 610 318 622 q 299 634 272 634 z m 654 683 q 660 693 667 697 q 674 702 681 702 q 692 702 700 694 q 708 686 708 674 q 708 666 703 658 l 317 -21 q 312 -28 306 -31 q 300 -35 293 -35 q 282 -35 273 -27 q 264 -20 264 -8 q 264 -2 268 4 z m 272 685 q 313 685 344 669 q 375 653 396 627 q 416 601 426 567 q 436 533 436 498 q 436 460 425 426 q 414 392 393 366 q 372 341 341 326 q 311 311 272 311 q 233 311 203 326 q 172 340 152 366 q 131 391 120 425 q 109 459 109 498 q 109 536 120 570 q 131 604 152 630 q 173 655 203 670 q 233 685 272 685 z m 733 359 q 775 359 806 343 q 836 327 857 301 q 877 275 887 241 q 897 208 897 172 q 897 134 886 100 q 875 66 854 41 q 833 15 802 0 q 772 -15 733 -15 q 694 -15 664 0 q 633 15 613 40 q 592 66 581 100 q 570 134 570 172 q 570 210 581 244 q 592 278 613 303 q 634 329 665 344 q 695 359 733 359 z m 733 309 q 706 309 688 297 q 669 285 657 265 q 646 246 641 222 q 636 197 636 172 q 636 147 641 123 q 646 98 657 79 q 669 60 688 48 q 706 36 733 36 q 760 36 779 48 q 798 60 809 79 q 820 98 825 123 q 831 147 831 172 q 831 197 825 222 q 820 246 809 265 q 798 285 779 297 q 760 309 733 309 z"},"m":{"x_min":0,"x_max":898,"ha":898,"o":"m 746 313 q 746 345 737 368 q 728 391 712 406 q 697 420 677 427 q 656 434 635 434 q 607 434 581 426 q 555 418 535 400 q 514 383 501 354 q 489 325 489 283 l 489 37 q 489 19 476 9 q 464 0 449 0 q 435 0 423 9 q 411 19 411 37 l 411 313 q 411 345 401 368 q 392 391 377 406 q 361 420 341 427 q 321 434 299 434 q 269 434 243 425 q 216 416 197 396 q 177 377 165 349 q 154 321 154 281 l 154 37 q 154 18 141 9 q 129 0 114 0 q 99 0 87 9 q 75 18 75 37 l 75 448 q 75 466 88 475 q 100 484 115 484 q 122 484 129 482 q 136 479 141 475 q 146 471 150 465 q 154 458 154 450 l 154 403 q 164 426 180 443 q 197 460 219 471 q 241 483 266 489 q 291 495 316 495 q 342 495 367 489 q 392 483 413 471 q 434 458 450 439 q 466 419 476 392 q 494 422 515 442 q 536 462 558 474 q 581 485 604 490 q 628 495 652 495 q 687 495 718 484 q 749 474 773 452 q 796 430 810 394 q 824 359 824 309 l 824 37 q 824 18 812 9 q 799 0 785 0 q 770 0 758 9 q 746 18 746 37 z"},"#":{"x_min":0,"x_max":571,"ha":571,"o":"m 335 224 l 206 224 l 173 5 q 171 -10 161 -18 q 151 -25 140 -25 q 127 -25 117 -17 q 107 -8 107 7 q 107 9 107 10 q 107 12 108 14 l 139 224 l 67 224 q 51 224 43 234 q 35 244 35 256 q 35 268 43 278 q 51 288 67 288 l 147 288 l 167 421 l 94 421 q 79 421 71 431 q 62 441 62 454 q 62 466 70 476 q 78 485 94 485 l 176 485 l 205 683 q 208 698 218 706 q 229 713 240 713 q 253 713 263 705 q 273 697 273 681 q 273 680 273 678 q 273 676 272 674 l 244 485 l 374 485 l 402 683 q 405 698 415 706 q 426 713 438 713 q 450 713 460 705 q 470 697 470 681 q 470 680 470 678 q 470 676 470 674 l 441 485 l 503 485 q 519 485 527 475 q 535 465 535 453 q 535 441 527 431 q 520 421 503 421 l 432 421 l 413 288 l 476 288 q 491 288 500 278 q 508 268 508 255 q 508 244 500 234 q 492 224 476 224 l 403 224 l 371 5 q 368 -10 358 -18 q 348 -25 337 -25 q 325 -25 315 -17 q 305 -8 305 7 q 305 9 305 10 q 305 12 305 14 z m 215 288 l 345 288 l 364 421 l 235 421 z"},",":{"x_min":0,"x_max":285,"ha":285,"o":"m 122 -117 l 54 -117 l 100 90 l 196 90 z"},"n":{"x_min":0,"x_max":565,"ha":565,"o":"m 76 448 q 76 465 88 474 q 101 483 115 483 q 142 483 150 464 q 158 444 154 403 q 164 425 181 441 q 198 457 219 469 q 241 481 266 488 q 291 495 316 495 q 352 495 383 484 q 414 473 438 450 q 462 427 476 392 q 490 356 490 306 l 490 37 q 490 19 477 9 q 465 0 450 0 q 436 0 424 9 q 412 19 412 37 l 412 312 q 412 344 402 366 q 393 389 377 404 q 362 419 342 427 q 322 434 300 434 q 270 434 243 424 q 217 415 197 397 q 177 379 165 350 q 154 321 154 281 l 154 37 q 154 19 141 9 q 129 0 114 0 q 100 0 88 9 q 76 19 76 37 z"},"h":{"x_min":0,"x_max":565,"ha":565,"o":"m 412 315 q 412 345 402 368 q 393 391 377 406 q 362 420 342 427 q 322 434 300 434 q 270 434 243 425 q 217 416 197 396 q 177 377 165 349 q 154 321 154 281 l 154 37 q 154 19 141 9 q 129 0 114 0 q 100 0 88 9 q 76 19 76 37 l 76 660 q 76 678 88 687 q 101 696 115 696 q 130 696 142 687 q 154 678 154 660 l 154 403 q 164 425 181 442 q 198 459 219 471 q 241 483 266 489 q 291 495 316 495 q 352 495 383 484 q 414 474 438 452 q 462 430 476 395 q 490 359 490 309 l 490 37 q 490 19 477 9 q 465 0 450 0 q 436 0 424 9 q 412 19 412 37 z"},"z":{"x_min":0,"x_max":455,"ha":455,"o":"m 384 64 q 400 64 408 54 q 417 44 417 32 q 417 20 408 10 q 400 0 384 0 l 80 0 q 60 0 49 11 q 38 22 38 38 q 38 45 40 53 q 43 61 49 68 l 323 419 l 76 419 q 60 419 52 429 q 44 439 44 452 q 44 464 52 474 q 60 484 76 484 l 375 484 q 397 484 409 473 q 421 463 421 447 q 421 440 418 432 q 415 424 409 416 l 138 64 z"},"B":{"x_min":0,"x_max":676,"ha":676,"o":"m 95 655 q 95 664 99 671 q 102 679 108 684 q 114 690 122 693 q 129 696 138 696 l 362 696 q 409 696 448 684 q 487 671 515 649 q 543 626 559 594 q 575 562 575 521 q 575 493 565 467 q 555 441 537 421 q 519 400 494 385 q 470 371 441 364 l 441 362 q 478 356 508 342 q 538 328 559 305 q 581 283 592 253 q 604 224 604 187 q 604 152 592 119 q 580 85 552 59 q 523 33 477 16 q 432 0 372 0 l 138 0 q 129 0 122 3 q 114 6 108 12 q 102 18 99 25 q 95 33 95 42 z m 181 67 l 328 67 q 372 67 407 73 q 441 79 465 94 q 489 109 501 134 q 514 159 514 198 q 514 239 497 265 q 480 291 451 305 q 422 319 381 323 q 341 328 292 328 l 181 328 z m 181 629 l 181 391 l 325 391 q 356 391 385 397 q 414 404 437 418 q 459 433 472 456 q 486 479 486 512 q 486 548 472 571 q 458 593 435 606 q 412 619 383 624 q 354 629 323 629 z"},"K":{"x_min":0,"x_max":629,"ha":629,"o":"m 186 41 q 186 30 182 23 q 179 15 172 10 q 166 5 158 2 q 150 0 143 0 q 135 0 127 2 q 120 5 114 10 q 108 15 104 23 q 101 30 101 41 l 101 655 q 101 676 114 686 q 127 696 144 696 q 151 696 159 694 q 167 691 173 686 q 179 681 182 673 q 186 666 186 655 l 186 389 l 480 681 q 487 689 495 693 q 503 696 512 696 q 527 696 539 686 q 551 676 551 661 q 551 648 541 636 l 277 380 l 568 68 q 579 54 579 41 q 579 33 575 25 q 572 18 565 12 q 559 6 551 3 q 543 0 535 0 q 526 0 517 4 q 508 8 501 17 l 186 358 z"},"R":{"x_min":0,"x_max":676,"ha":676,"o":"m 98 654 q 98 663 101 671 q 104 678 110 684 q 116 689 124 693 q 132 696 141 696 l 350 696 q 395 696 439 689 q 483 681 519 661 q 554 641 575 606 q 597 571 597 516 q 597 458 560 418 q 523 378 455 363 l 455 361 q 490 356 512 343 q 535 330 549 311 q 562 291 569 265 q 576 239 580 208 q 583 170 586 139 q 589 108 591 87 q 593 62 595 42 q 595 21 582 11 q 568 0 551 0 q 535 0 521 10 q 508 20 506 40 q 500 99 496 144 q 493 189 488 220 q 482 251 474 271 q 465 292 450 303 q 434 314 410 319 q 385 323 349 323 l 184 323 l 184 41 q 184 31 180 23 q 177 15 170 10 q 164 5 156 2 q 148 0 141 0 q 125 0 111 10 q 98 21 98 41 z m 312 391 q 334 391 357 392 q 380 393 402 397 q 423 401 442 409 q 461 417 476 430 q 490 443 499 462 q 507 482 507 510 q 507 537 500 557 q 492 576 480 589 q 468 603 451 610 q 435 618 417 622 q 398 625 380 627 q 361 628 343 628 l 184 628 l 184 391 z"},"T":{"x_min":0,"x_max":565,"ha":565,"o":"m 49 625 q 31 625 22 636 q 13 647 13 661 q 13 674 22 685 q 31 696 49 696 l 516 696 q 534 696 543 685 q 552 674 552 661 q 552 647 543 636 q 534 625 516 625 l 328 625 l 328 42 q 328 31 324 23 q 320 16 314 10 q 308 5 300 3 q 292 0 284 0 q 268 0 254 10 q 241 21 241 42 l 241 625 z"},"P":{"x_min":0,"x_max":624,"ha":624,"o":"m 182 305 l 182 41 q 182 31 178 23 q 175 15 168 10 q 162 5 154 2 q 146 0 139 0 q 122 0 109 10 q 95 21 95 41 l 95 654 q 95 663 99 670 q 102 678 108 684 q 114 689 122 693 q 130 696 139 696 l 314 696 q 349 696 383 692 q 417 688 448 679 q 479 670 505 655 q 531 640 550 617 q 569 595 580 565 q 591 535 591 501 q 591 466 580 436 q 569 406 550 383 q 530 361 504 346 q 477 331 446 322 q 415 312 380 309 q 346 305 311 305 z m 326 373 q 361 373 393 379 q 425 385 449 400 q 473 416 487 441 q 500 467 500 501 q 500 535 487 560 q 473 585 449 601 q 425 616 394 622 q 363 628 328 628 l 182 628 l 182 373 z"},"|":{"x_min":0,"x_max":222,"ha":222,"o":"m 77 688 q 77 705 88 713 q 99 722 111 722 q 124 722 135 713 q 145 705 145 688 l 145 -184 q 145 -201 134 -210 q 124 -218 111 -218 q 98 -218 88 -210 q 77 -201 77 -184 z"},"t":{"x_min":0,"x_max":345,"ha":345,"o":"m 116 484 l 123 622 q 124 637 135 646 q 147 655 161 655 q 173 655 183 647 q 192 639 192 623 l 192 484 l 280 484 q 295 484 303 475 q 311 465 311 454 q 311 443 303 434 q 295 425 280 425 l 192 425 l 192 199 q 192 155 193 127 q 194 99 200 81 q 206 64 218 57 q 230 50 252 50 q 265 50 279 52 q 293 54 303 54 q 317 54 324 46 q 332 37 332 29 q 332 16 323 9 q 314 1 300 -3 q 285 -8 269 -9 q 253 -11 242 -11 q 209 -11 185 -2 q 161 6 145 26 q 129 45 122 77 q 114 109 114 156 l 114 425 l 55 425 q 40 425 31 434 q 23 443 23 455 q 23 466 31 475 q 40 484 55 484 z"},"M":{"x_min":0,"x_max":955,"ha":955,"o":"m 479 112 l 710 624 q 719 646 728 660 q 736 674 746 682 q 755 690 767 693 q 778 696 793 696 q 808 696 820 692 q 833 688 842 678 q 851 669 856 655 q 862 640 862 621 l 862 39 q 862 20 849 10 q 836 0 821 0 q 807 0 794 10 q 782 19 782 39 l 782 612 l 530 54 q 522 35 508 26 q 493 16 477 16 q 461 16 448 25 q 434 34 426 54 l 174 608 l 174 39 q 174 20 162 10 q 149 0 134 0 q 119 0 107 10 q 95 19 95 39 l 95 621 q 95 640 100 655 q 105 669 115 678 q 124 688 136 692 q 149 696 163 696 q 178 696 190 693 q 202 690 212 682 q 223 673 232 659 q 241 645 250 623 l 477 112 z"},"g":{"x_min":0,"x_max":567,"ha":567,"o":"m 423 241 q 423 276 415 311 q 408 346 390 373 q 372 400 343 417 q 313 434 271 434 q 230 434 202 419 q 175 405 158 379 q 142 354 135 319 q 127 284 127 243 q 127 193 139 159 q 151 124 171 101 q 191 79 218 67 q 244 56 271 56 q 300 56 328 68 q 355 80 376 103 q 397 126 410 161 q 423 196 423 241 z m 423 95 q 410 69 391 51 q 373 34 351 22 q 330 11 306 6 q 282 0 258 0 q 201 0 161 20 q 120 40 94 73 q 68 105 55 148 q 43 191 43 240 q 43 292 55 338 q 68 384 94 419 q 119 454 158 474 q 197 495 250 495 q 278 495 303 490 q 328 485 350 473 q 373 462 392 443 q 411 425 426 398 l 426 451 q 427 467 438 476 q 450 484 463 484 q 477 484 488 475 q 500 466 500 448 l 500 -10 q 500 -62 483 -98 q 467 -135 437 -159 q 407 -183 365 -194 q 322 -205 270 -205 q 237 -205 210 -201 q 184 -197 163 -189 q 142 -182 125 -171 q 109 -160 96 -146 q 86 -136 86 -125 q 86 -113 94 -105 q 103 -96 116 -96 q 124 -96 132 -101 q 146 -108 160 -115 q 173 -123 189 -128 q 205 -134 224 -137 q 243 -140 267 -140 q 302 -140 331 -134 q 359 -128 380 -114 q 401 -99 412 -75 q 423 -52 423 -16 z"},"j":{"x_min":0,"x_max":232,"ha":232,"o":"m 156 -16 q 156 -62 153 -93 q 149 -125 136 -145 q 123 -165 97 -173 q 71 -182 25 -182 q 22 -182 17 -182 q 13 -181 8 -180 q 4 -179 1 -177 q -2 -176 -2 -175 q -13 -174 -18 -166 q -23 -159 -23 -150 q -23 -140 -16 -131 q -10 -123 3 -123 q 29 -123 44 -120 q 59 -118 66 -109 q 74 -100 76 -83 q 78 -65 78 -35 l 78 445 q 78 464 90 474 q 103 484 118 484 q 125 484 132 481 q 139 479 144 474 q 149 469 153 462 q 156 455 156 445 z m 170 652 q 170 634 156 621 q 142 607 117 607 q 92 607 78 621 q 64 634 64 652 q 64 670 78 684 q 92 697 117 697 q 142 697 156 684 q 170 670 170 652 z"},"i":{"x_min":0,"x_max":231,"ha":231,"o":"m 168 652 q 168 634 155 621 q 141 607 115 607 q 90 607 76 621 q 62 634 62 652 q 62 670 76 684 q 90 697 116 697 q 141 697 155 684 q 168 670 168 652 z m 77 445 q 77 464 89 474 q 102 484 116 484 q 124 484 130 481 q 137 479 143 474 q 148 469 151 462 q 155 455 155 445 l 155 40 q 155 20 142 10 q 129 0 115 0 q 100 0 88 10 q 77 19 77 40 z"},"y":{"x_min":0,"x_max":502,"ha":502,"o":"m 215 5 l 27 433 q 23 440 23 447 q 23 455 27 462 q 31 469 37 474 q 43 479 51 481 q 59 484 67 484 q 78 484 88 478 q 98 472 103 459 l 254 92 l 405 460 q 411 473 420 479 q 429 484 439 484 q 454 484 466 474 q 478 464 478 448 q 478 441 475 434 l 229 -163 q 224 -177 214 -183 q 205 -189 193 -189 q 186 -189 179 -187 q 171 -184 166 -179 q 160 -175 157 -168 q 153 -162 153 -153 q 153 -146 156 -139 z"},"@":{"x_min":0,"x_max":800,"ha":800,"o":"m 263 295 q 263 277 268 260 q 273 243 283 230 q 293 218 307 210 q 321 202 339 202 q 357 202 377 208 q 396 213 414 225 q 432 236 446 252 q 459 269 467 291 l 506 412 q 511 426 511 438 q 511 457 503 471 q 495 485 483 495 q 471 505 456 511 q 441 516 428 516 q 403 516 381 506 q 359 496 341 478 q 323 461 308 438 q 293 416 283 391 q 273 366 268 341 q 263 316 263 295 z m 531 60 q 537 62 543 62 q 556 62 562 54 q 569 46 569 37 q 569 29 565 22 q 561 15 552 13 q 470 -12 394 -12 q 316 -12 249 13 q 182 39 133 87 q 84 135 56 204 q 28 273 28 361 q 28 422 45 473 q 62 524 90 566 q 119 608 158 640 q 198 672 243 694 q 288 716 337 727 q 386 738 435 738 q 498 738 555 719 q 613 701 658 662 q 703 624 729 565 q 756 506 756 425 q 756 386 747 349 q 737 312 720 281 q 703 249 681 222 q 658 196 633 177 q 607 158 580 148 q 553 137 527 137 q 514 137 501 140 q 488 144 477 150 q 465 156 457 166 q 448 175 444 188 q 421 165 388 151 q 355 138 323 138 q 290 138 264 150 q 238 162 220 183 q 202 204 192 231 q 183 259 183 290 q 183 323 190 358 q 198 392 213 425 q 228 457 249 486 q 271 515 298 536 q 325 558 357 570 q 389 583 425 583 q 442 583 459 578 q 476 574 490 566 q 505 558 517 546 q 529 534 537 518 l 542 533 q 545 545 556 552 q 567 558 578 558 q 590 558 599 551 q 608 544 608 531 q 608 525 606 519 l 526 272 q 521 257 518 243 q 515 229 515 219 q 515 208 521 201 q 526 194 542 194 q 571 194 598 215 q 625 236 646 269 q 667 302 679 343 q 692 384 692 425 q 692 491 671 540 q 650 589 615 621 q 579 652 533 668 q 487 683 437 683 q 396 683 355 673 q 313 664 275 645 q 237 625 204 597 q 171 569 146 533 q 122 497 108 452 q 94 408 94 355 q 94 277 119 218 q 144 159 186 119 q 228 80 284 60 q 340 40 403 40 q 465 40 531 60 z"},".":{"x_min":0,"x_max":285,"ha":285,"o":"m 90 47 q 90 56 93 65 q 97 73 104 80 q 110 86 120 91 q 130 95 143 95 q 155 95 165 91 q 174 86 181 80 q 188 73 191 65 q 195 56 195 47 q 195 38 191 30 q 188 21 181 14 q 174 8 165 4 q 155 0 143 0 q 130 0 120 4 q 110 8 104 14 q 97 21 93 30 q 90 38 90 47 z"},"p":{"x_min":0,"x_max":567,"ha":567,"o":"m 146 403 q 159 426 177 444 q 196 461 219 472 q 242 484 268 489 q 293 495 321 495 q 374 495 412 473 q 451 451 475 416 q 500 380 511 334 q 523 288 523 240 q 523 191 511 146 q 499 100 473 65 q 448 31 409 10 q 371 -11 318 -11 q 293 -11 268 -5 q 243 0 221 12 q 198 23 179 40 q 160 58 146 80 l 146 -149 q 146 -167 133 -176 q 121 -185 106 -185 q 92 -185 80 -176 q 67 -167 67 -149 l 67 448 q 67 466 79 475 q 91 483 106 483 q 132 483 141 464 q 149 444 146 403 z m 146 240 q 146 203 155 169 q 163 135 181 109 q 200 82 229 66 q 258 50 299 50 q 327 50 348 58 q 369 65 385 79 q 400 93 411 112 q 421 130 428 152 q 435 173 437 198 q 440 224 440 243 q 440 275 434 309 q 427 343 411 371 q 396 398 369 416 q 342 434 301 434 q 255 434 225 419 q 195 404 178 378 q 160 352 153 316 q 146 281 146 240 z"},"X":{"x_min":0,"x_max":622,"ha":622,"o":"m 108 20 q 101 9 92 5 q 83 0 74 0 q 66 0 59 3 q 51 6 46 11 q 40 16 37 23 q 33 30 33 37 q 33 48 41 59 l 258 358 l 56 636 q 49 645 49 656 q 49 664 53 671 q 57 679 64 684 q 70 690 79 693 q 87 696 96 696 q 106 696 116 692 q 125 687 133 676 l 316 412 l 506 676 q 514 687 523 692 q 532 696 542 696 q 550 696 557 693 q 564 690 569 686 q 575 681 578 675 q 581 668 581 661 q 581 655 579 650 q 578 645 574 640 l 364 358 l 579 62 q 586 52 586 42 q 586 33 582 26 q 578 18 571 12 q 564 7 556 3 q 548 0 539 0 q 519 0 504 20 l 307 302 z"},"*":{"x_min":0,"x_max":540,"ha":540,"o":"m 319 556 l 438 561 q 452 561 461 552 q 470 543 470 530 q 470 518 461 509 q 452 500 438 500 l 318 505 l 380 405 q 384 397 384 389 q 384 378 376 369 q 368 360 354 360 q 345 360 338 364 q 331 368 327 375 l 269 478 l 212 375 q 208 368 200 364 q 193 360 185 360 q 177 360 172 363 q 166 365 162 370 q 158 374 156 379 q 154 384 154 389 q 154 397 158 405 l 220 505 l 101 500 q 88 500 79 509 q 70 518 70 530 q 70 543 79 552 q 88 561 101 561 l 219 556 l 157 656 q 153 663 153 671 q 153 683 161 692 q 170 702 184 702 q 192 702 199 698 q 207 694 211 686 l 269 581 l 327 686 q 337 702 354 702 q 368 702 377 692 q 385 683 385 671 q 385 662 381 656 z"},"Y":{"x_min":0,"x_max":624,"ha":624,"o":"m 356 296 l 356 42 q 356 31 353 23 q 349 16 343 10 q 336 5 329 3 q 321 0 312 0 q 296 0 282 10 q 269 21 269 42 l 269 294 l 42 638 q 40 643 38 647 q 37 652 37 656 q 37 665 41 672 q 45 679 52 685 q 59 690 68 693 q 76 696 85 696 q 96 696 105 691 q 115 686 122 675 l 318 364 l 319 364 l 517 675 q 523 687 532 691 q 542 696 552 696 q 559 696 566 694 q 574 691 579 687 q 585 683 588 677 q 592 670 592 663 q 591 659 590 654 q 589 649 586 645 z"},"c":{"x_min":0,"x_max":474,"ha":474,"o":"m 44 242 q 44 293 59 339 q 75 385 104 419 q 134 454 177 474 q 220 495 275 495 q 298 495 324 490 q 350 486 372 478 q 394 469 408 458 q 423 446 423 431 q 423 420 416 411 q 408 402 396 402 q 390 402 382 405 q 333 434 282 434 q 247 434 219 420 q 190 407 169 382 q 149 357 138 323 q 126 288 126 243 q 126 208 134 174 q 142 140 159 112 q 177 83 208 66 q 238 50 281 50 q 308 50 335 58 q 362 66 392 82 q 399 84 405 84 q 417 84 424 76 q 431 68 431 57 q 431 42 415 29 q 399 17 375 8 q 351 0 323 -6 q 294 -11 271 -11 q 215 -11 173 9 q 130 29 102 64 q 73 99 59 145 q 44 191 44 242 z"},"!":{"x_min":0,"x_max":387,"ha":387,"o":"m 191 88 q 205 88 214 85 q 224 81 231 75 q 237 68 241 61 q 244 53 244 45 q 244 36 241 28 q 237 20 231 14 q 224 8 214 4 q 205 0 191 0 q 178 0 168 4 q 158 8 152 14 q 145 20 142 28 q 138 36 138 45 q 138 53 142 61 q 145 68 152 75 q 158 81 168 85 q 178 88 191 88 z m 143 684 q 143 703 157 713 q 170 723 188 723 q 206 723 219 713 q 233 704 233 684 l 219 214 q 218 194 209 185 q 200 175 188 175 q 176 175 167 185 q 157 194 156 214 z"},"/":{"x_min":0,"x_max":287,"ha":287,"o":"m 57 -61 q 52 -74 43 -80 q 34 -85 24 -85 q 11 -85 1 -77 q -10 -69 -10 -54 q -10 -49 -7 -41 l 229 674 q 232 687 242 692 q 251 698 262 698 q 275 698 286 690 q 297 682 297 667 q 297 661 294 653 z"},"[":{"x_min":0,"x_max":298,"ha":298,"o":"m 84 657 q 84 673 96 685 q 107 696 125 696 l 214 696 q 229 696 237 687 q 244 678 244 667 q 244 655 237 646 q 229 636 214 636 l 164 636 l 164 -37 l 214 -37 q 229 -37 237 -46 q 245 -56 245 -67 q 245 -78 237 -88 q 229 -98 214 -98 l 125 -98 q 107 -98 96 -86 q 84 -75 84 -59 z"},"6":{"x_min":0,"x_max":571,"ha":571,"o":"m 474 667 q 482 663 486 656 q 490 649 490 641 q 490 634 487 627 q 485 621 480 615 q 476 610 470 606 q 464 603 458 603 q 454 603 449 604 q 417 617 386 625 q 355 632 329 632 q 286 632 254 619 q 223 607 201 586 q 179 565 166 537 q 152 509 145 477 q 138 446 135 413 q 132 380 132 349 q 158 401 205 427 q 252 452 312 452 q 363 452 403 436 q 443 419 471 390 q 499 361 513 320 q 528 280 528 227 q 528 170 512 128 q 497 86 467 55 q 438 24 395 7 q 353 -11 299 -11 q 250 -11 213 1 q 175 13 146 35 q 118 56 98 86 q 79 116 66 151 q 54 186 49 232 q 43 278 43 320 q 43 365 48 411 q 52 457 63 499 q 74 542 94 578 q 113 615 145 643 q 176 670 220 686 q 265 702 325 702 q 366 702 404 693 q 441 684 474 667 z m 292 58 q 327 58 355 69 q 383 81 402 102 q 421 123 431 151 q 440 180 440 222 q 440 259 433 289 q 425 318 408 341 q 391 363 365 377 q 339 390 303 390 q 264 390 235 377 q 205 365 185 342 q 165 320 154 289 q 144 259 144 218 q 144 180 155 152 q 166 124 186 103 q 206 83 232 70 q 259 58 292 58 z"},"r":{"x_min":0,"x_max":346,"ha":346,"o":"m 76 447 q 76 464 88 474 q 100 484 117 484 q 134 484 144 474 q 154 464 154 447 l 154 403 q 161 424 172 441 q 184 458 200 470 q 216 482 238 488 q 259 495 288 495 q 307 495 317 484 q 327 473 327 460 q 327 448 317 438 q 307 427 287 427 q 255 427 230 417 q 206 406 189 387 q 172 367 163 339 q 154 311 154 276 l 154 36 q 154 18 141 9 q 129 0 114 0 q 106 0 100 2 q 93 4 87 9 q 82 13 79 20 q 76 27 76 36 z"},"2":{"x_min":0,"x_max":571,"ha":571,"o":"m 287 631 q 269 631 251 627 q 233 624 217 618 q 200 612 185 605 q 170 598 158 590 q 144 583 131 583 q 117 583 108 591 q 99 600 99 612 q 99 623 108 633 q 117 644 132 654 q 147 664 167 673 q 187 682 208 688 q 230 695 252 698 q 274 702 294 702 q 335 702 373 692 q 410 681 438 660 q 467 640 484 609 q 500 578 500 538 q 500 500 484 459 q 467 419 440 378 q 412 337 377 296 q 341 254 303 217 q 266 179 225 138 q 184 98 153 71 l 465 71 q 482 71 491 60 q 500 48 500 35 q 500 21 491 11 q 482 0 465 0 l 111 0 q 80 0 66 13 q 52 25 52 44 q 52 59 60 75 q 68 91 84 105 q 109 127 146 166 q 182 205 218 240 q 253 276 288 316 q 323 355 350 394 q 378 432 395 467 q 412 502 412 531 q 412 556 401 574 q 391 593 373 605 q 356 618 333 625 q 311 631 287 631 z"},"{":{"x_min":0,"x_max":298,"ha":298,"o":"m 262 -40 q 276 -40 283 -49 q 290 -59 290 -70 q 290 -82 283 -92 q 276 -101 262 -101 l 205 -101 q 188 -101 171 -93 q 154 -85 141 -70 q 128 -56 120 -35 q 111 -15 111 10 l 111 155 q 111 182 109 203 q 106 225 99 240 q 91 255 77 265 q 63 274 41 276 q 24 276 16 287 q 8 297 8 309 q 8 322 16 332 q 24 342 41 342 q 63 345 77 354 q 91 363 99 379 q 106 395 109 416 q 111 438 111 465 l 111 611 q 111 636 120 656 q 128 677 141 691 q 154 706 171 714 q 188 722 205 722 l 262 722 q 276 722 283 712 q 290 703 290 691 q 290 680 283 670 q 276 661 262 661 l 231 661 q 210 661 201 642 q 191 623 191 587 l 191 447 q 191 411 182 387 q 173 363 161 347 q 149 332 137 323 q 126 314 121 310 q 126 307 137 299 q 149 290 161 274 q 173 257 182 233 q 191 208 191 173 l 191 34 q 191 -1 201 -20 q 210 -40 231 -40 z"},"9":{"x_min":0,"x_max":571,"ha":571,"o":"m 97 24 q 88 28 85 35 q 81 42 81 51 q 81 58 83 65 q 86 72 90 78 q 95 83 101 87 q 106 90 113 90 q 117 90 122 89 q 157 75 190 68 q 223 62 250 62 q 291 62 321 74 q 351 87 372 109 q 393 131 406 161 q 419 190 426 225 q 434 259 436 289 q 439 319 439 355 l 438 355 q 437 355 437 356 q 425 330 407 310 q 388 291 365 278 q 342 265 315 259 q 288 252 258 252 q 208 252 167 269 q 127 285 100 314 q 72 343 58 384 q 43 424 43 473 q 43 521 59 563 q 75 605 104 636 q 134 667 176 685 q 218 702 271 702 q 320 702 358 690 q 396 678 425 657 q 454 635 473 605 q 493 576 505 541 q 517 505 522 466 q 528 426 528 384 q 528 337 524 295 q 520 253 509 208 q 498 162 478 122 q 458 83 427 53 q 395 23 351 6 q 307 -11 246 -11 q 206 -11 167 -2 q 129 7 97 24 z m 279 634 q 243 634 216 622 q 188 610 169 590 q 150 569 141 540 q 131 511 131 477 q 131 445 139 415 q 146 386 163 363 q 180 341 206 327 q 231 314 268 314 q 307 314 336 327 q 366 339 386 362 q 406 384 417 415 q 427 445 427 481 q 427 512 416 540 q 405 567 385 588 q 366 609 339 621 q 312 634 279 634 z"}," ":{"x_min":0,"x_max":285,"ha":285,"o":""},"I":{"x_min":0,"x_max":289,"ha":289,"o":"m 102 655 q 102 665 105 673 q 109 681 115 686 q 122 691 129 694 q 137 696 146 696 q 162 696 175 686 q 188 676 188 655 l 188 41 q 188 31 185 23 q 181 15 175 10 q 168 5 161 2 q 153 0 145 0 q 128 0 115 10 q 102 21 102 41 z"},"H":{"x_min":0,"x_max":729,"ha":729,"o":"m 548 655 q 548 666 552 673 q 556 681 562 686 q 568 691 576 694 q 583 696 592 696 q 608 696 622 686 q 635 676 635 655 l 635 41 q 635 31 632 23 q 628 15 622 10 q 615 5 607 2 q 600 0 591 0 q 575 0 562 10 q 548 21 548 41 l 548 325 l 181 325 l 181 41 q 181 31 177 23 q 174 15 167 10 q 161 5 153 2 q 146 0 137 0 q 121 0 108 10 q 94 21 94 41 l 94 655 q 94 666 98 673 q 102 681 108 686 q 114 691 122 694 q 130 696 138 696 q 154 696 168 686 q 181 676 181 655 l 181 397 l 548 397 z"},"4":{"x_min":0,"x_max":571,"ha":571,"o":"m 302 657 q 314 678 333 687 q 351 696 371 696 q 383 696 394 693 q 405 689 413 682 q 422 675 427 663 q 432 652 432 636 l 432 219 l 507 219 q 523 219 531 209 q 539 199 539 187 q 539 174 531 164 q 523 154 507 154 l 431 154 l 431 39 q 431 29 427 22 q 424 15 418 10 q 412 5 405 2 q 397 0 390 0 q 382 0 374 2 q 367 5 361 10 q 355 15 351 22 q 347 29 347 39 l 347 154 l 65 154 q 44 154 31 168 q 19 182 19 201 q 19 208 21 216 q 22 224 28 231 z m 93 219 l 347 219 l 347 617 z"},"~":{"x_min":0,"x_max":654,"ha":654,"o":"m 380 633 q 390 633 397 637 q 405 641 411 650 q 417 659 423 662 q 429 666 435 666 q 444 666 451 658 q 458 651 458 642 q 458 640 457 637 q 457 635 456 633 q 445 607 426 592 q 407 576 375 576 q 360 576 345 582 q 330 587 314 593 q 299 599 285 604 q 271 610 257 610 q 247 610 238 605 q 229 601 220 590 q 211 579 199 579 q 189 579 183 585 q 176 591 176 601 q 176 605 179 611 q 191 638 211 652 q 230 666 260 666 q 277 666 293 660 q 310 655 325 649 q 340 644 354 638 q 368 633 380 633 z"},"D":{"x_min":0,"x_max":729,"ha":729,"o":"m 130 0 q 122 0 114 3 q 105 7 100 12 q 94 18 90 26 q 87 33 87 42 l 87 654 q 87 663 90 671 q 94 678 100 684 q 105 689 114 693 q 122 696 130 696 l 296 696 q 387 696 457 674 q 526 651 574 607 q 621 563 645 498 q 669 432 669 347 q 669 261 645 197 q 620 132 572 88 q 524 44 456 22 q 387 0 298 0 z m 173 68 l 308 68 q 379 68 430 88 q 481 107 514 144 q 546 180 562 232 q 577 284 577 348 q 577 420 557 473 q 537 526 500 560 q 462 595 407 611 q 353 628 284 628 l 173 628 z"},"^":{"x_min":0,"x_max":654,"ha":654,"o":"m 326 603 l 156 261 q 151 250 143 245 q 134 240 125 240 q 113 240 102 249 q 91 257 91 271 q 91 278 94 285 l 285 654 q 292 667 303 674 q 314 681 326 681 q 339 681 350 674 q 361 667 368 654 l 558 285 q 561 278 561 272 q 561 265 558 259 q 555 253 550 249 q 545 245 539 243 q 532 240 526 240 q 517 240 509 245 q 501 250 496 261 z"},"0":{"x_min":0,"x_max":571,"ha":571,"o":"m 285 633 q 251 633 227 620 q 203 606 186 584 q 169 562 159 533 q 149 504 144 473 q 139 442 137 411 q 136 379 136 344 q 136 313 137 281 q 139 250 144 219 q 149 188 159 159 q 169 130 186 108 q 203 85 227 72 q 251 59 285 59 q 319 59 344 72 q 368 85 385 108 q 401 130 411 159 q 421 188 427 219 q 432 250 434 281 q 436 313 436 344 q 436 379 434 411 q 432 442 427 473 q 421 504 411 533 q 401 562 385 584 q 368 606 344 620 q 319 633 285 633 z m 285 702 q 333 702 370 688 q 406 675 433 650 q 459 626 477 593 q 495 560 506 521 q 516 482 521 439 q 525 396 525 344 q 525 296 521 253 q 516 210 506 171 q 495 132 477 99 q 459 65 433 41 q 406 17 370 3 q 333 -11 285 -11 q 237 -11 200 3 q 164 17 137 41 q 111 65 93 99 q 75 132 65 171 q 54 210 50 253 q 45 296 45 344 q 45 396 50 439 q 54 482 65 521 q 75 560 93 593 q 111 626 137 650 q 164 675 201 688 q 237 702 285 702 z"},"F":{"x_min":0,"x_max":562,"ha":562,"o":"m 91 655 q 91 673 103 685 q 115 696 132 696 l 476 696 q 494 696 503 685 q 512 674 512 661 q 512 647 503 636 q 494 625 476 625 l 178 625 l 178 398 l 463 398 q 481 398 490 387 q 500 376 500 363 q 500 349 490 338 q 481 327 463 327 l 178 327 l 178 41 q 178 31 174 23 q 170 15 164 10 q 158 5 150 2 q 142 0 134 0 q 118 0 104 10 q 91 21 91 41 z"},"`":{"x_min":0,"x_max":278,"ha":278,"o":"m 40 667 q 34 672 32 677 q 29 683 29 689 q 29 697 33 704 q 37 712 43 718 q 49 724 57 728 q 65 732 73 732 q 80 732 86 729 q 92 727 98 720 l 229 573 q 233 569 234 565 q 235 561 235 557 q 235 549 230 544 q 226 539 217 539 q 208 539 197 547 z"},"k":{"x_min":0,"x_max":484,"ha":484,"o":"m 159 261 l 159 40 q 159 20 147 10 q 134 0 119 0 q 105 0 93 10 q 81 19 81 40 l 81 657 q 81 676 94 686 q 106 696 121 696 q 128 696 135 693 q 142 691 147 686 q 152 681 156 674 q 159 667 159 657 l 159 288 l 380 473 q 391 484 405 484 q 418 484 429 475 q 439 465 439 453 q 439 447 437 442 q 434 436 429 431 l 241 274 l 454 55 q 458 50 460 45 q 461 40 461 35 q 461 28 458 21 q 455 15 450 10 q 444 5 438 3 q 431 0 424 0 q 411 0 398 13 z"},"u":{"x_min":0,"x_max":565,"ha":565,"o":"m 490 37 q 490 18 477 9 q 465 0 450 0 q 443 0 436 2 q 429 4 424 9 q 418 13 415 20 q 412 27 412 36 l 412 80 q 401 59 384 42 q 367 24 345 13 q 324 1 299 -5 q 274 -11 249 -11 q 214 -11 183 0 q 151 11 127 34 q 104 57 90 93 q 76 128 76 178 l 76 447 q 76 466 88 475 q 100 484 115 484 q 129 484 142 475 q 154 466 154 447 l 154 173 q 154 141 160 117 q 166 92 181 77 q 196 62 218 56 q 239 50 266 50 q 294 50 320 58 q 345 66 365 83 q 384 101 397 127 q 409 153 412 189 l 412 447 q 412 465 424 475 q 437 484 451 484 q 466 484 478 475 q 490 466 490 447 z"},"]":{"x_min":0,"x_max":298,"ha":298,"o":"m 213 -59 q 213 -75 202 -86 q 190 -98 173 -98 l 83 -98 q 68 -98 61 -88 q 53 -78 53 -67 q 53 -56 61 -46 q 68 -37 83 -37 l 134 -37 l 134 636 l 83 636 q 68 636 61 646 q 53 655 53 667 q 53 678 61 687 q 68 696 83 696 l 173 696 q 190 696 202 685 q 213 673 213 657 z"},"U":{"x_min":0,"x_max":728,"ha":728,"o":"m 92 655 q 92 665 96 673 q 100 681 106 686 q 112 691 120 694 q 128 696 136 696 q 152 696 166 686 q 179 676 179 655 l 179 244 q 179 197 195 162 q 211 128 237 105 q 263 83 296 72 q 329 61 364 61 q 398 61 432 72 q 465 83 491 105 q 517 128 533 162 q 549 197 549 244 l 549 655 q 549 665 552 673 q 556 681 562 686 q 568 691 576 694 q 584 696 593 696 q 609 696 622 686 q 636 676 636 655 l 636 242 q 636 178 613 130 q 590 83 552 52 q 515 20 466 5 q 417 -11 364 -11 q 311 -11 262 5 q 213 20 175 52 q 138 83 115 130 q 92 178 92 242 z"},"o":{"x_min":0,"x_max":567,"ha":567,"o":"m 42 242 q 42 287 57 333 q 71 379 101 415 q 131 451 176 473 q 222 495 283 495 q 345 495 390 473 q 436 451 466 415 q 496 379 510 333 q 525 287 525 242 q 525 196 510 150 q 496 104 466 69 q 436 33 390 11 q 345 -11 283 -11 q 222 -11 176 11 q 131 33 101 69 q 71 104 57 150 q 42 196 42 242 z m 125 242 q 125 211 134 176 q 143 142 162 114 q 181 85 211 68 q 241 50 283 50 q 326 50 356 68 q 386 85 405 114 q 423 142 432 176 q 441 211 441 242 q 441 272 432 307 q 423 342 405 370 q 386 398 356 416 q 326 434 283 434 q 241 434 211 416 q 181 398 162 370 q 143 342 134 307 q 125 272 125 242 z"},"N":{"x_min":0,"x_max":733,"ha":733,"o":"m 88 639 q 88 652 93 663 q 97 674 105 681 q 112 688 122 692 q 132 696 143 696 q 157 696 171 689 q 184 683 195 668 l 564 111 l 564 657 q 564 667 568 674 q 571 682 577 687 q 583 691 590 694 q 598 696 605 696 q 613 696 620 694 q 627 691 633 687 q 639 682 643 674 q 646 667 646 657 l 646 58 q 646 44 641 33 q 636 22 628 15 q 620 8 609 4 q 599 0 587 0 q 573 0 559 7 q 544 14 534 28 l 170 578 l 170 39 q 170 29 166 22 q 163 15 157 10 q 151 5 144 2 q 136 0 128 0 q 113 0 100 10 q 88 19 88 39 z"},"+":{"x_min":0,"x_max":654,"ha":654,"o":"m 361 275 l 543 275 q 558 275 568 266 q 578 256 578 242 q 578 229 568 219 q 558 209 543 209 l 361 209 l 361 35 q 361 21 351 11 q 341 2 327 2 q 312 2 303 11 q 293 21 293 35 l 293 209 l 111 209 q 97 209 87 219 q 77 229 77 242 q 77 256 87 266 q 97 275 111 275 l 293 275 l 293 451 q 293 465 303 475 q 312 484 327 484 q 341 484 351 475 q 361 465 361 451 z"},"G":{"x_min":0,"x_max":731,"ha":731,"o":"m 609 359 q 626 359 635 349 q 645 339 645 322 l 645 67 q 645 49 636 39 q 626 28 613 24 q 559 8 503 -1 q 447 -11 398 -11 q 323 -11 260 10 q 198 32 154 76 q 109 121 85 189 q 60 258 60 348 q 60 388 69 434 q 79 480 97 521 q 116 561 145 594 q 173 628 211 652 q 250 676 298 689 q 346 702 404 702 q 458 702 507 693 q 557 684 599 667 q 609 662 614 654 q 618 646 618 637 q 618 624 610 613 q 601 602 587 602 q 585 602 583 602 q 581 602 579 603 q 558 608 535 613 q 513 618 490 621 q 468 625 447 626 q 426 628 408 628 q 339 628 290 605 q 242 582 211 542 q 180 502 166 449 q 152 396 152 346 q 152 283 166 229 q 179 175 209 138 q 239 100 288 80 q 336 60 407 60 q 446 60 485 66 q 523 72 559 82 l 559 293 l 421 293 q 405 293 396 303 q 388 313 388 326 q 388 339 396 349 q 404 359 421 359 z"},"q":{"x_min":0,"x_max":567,"ha":567,"o":"m 424 403 q 424 417 424 426 q 424 435 424 450 q 425 467 437 475 q 449 484 462 484 q 477 484 488 475 q 500 466 500 448 l 500 -148 q 500 -166 487 -175 q 475 -184 460 -184 q 445 -184 433 -175 q 421 -167 421 -148 l 421 80 q 407 58 388 40 q 369 23 346 12 q 324 0 299 -5 q 274 -11 249 -11 q 196 -11 157 10 q 119 31 94 65 q 68 100 56 146 q 44 191 44 240 q 44 288 56 334 q 67 380 92 416 q 116 451 155 473 q 193 495 246 495 q 273 495 299 489 q 326 484 349 472 q 373 461 392 444 q 411 426 424 403 z m 421 240 q 421 281 414 316 q 407 352 389 378 q 372 404 342 419 q 312 434 266 434 q 225 434 198 416 q 171 398 156 371 q 140 343 133 309 q 126 275 126 243 q 126 209 133 174 q 140 139 156 112 q 172 84 199 67 q 226 50 267 50 q 309 50 338 66 q 367 82 385 108 q 404 134 412 169 q 421 204 421 240 z"},"d":{"x_min":0,"x_max":567,"ha":567,"o":"m 500 37 q 500 18 488 9 q 476 0 461 0 q 454 0 447 2 q 440 4 435 9 q 429 14 426 20 q 422 27 422 36 l 422 58 q 422 66 421 73 l 421 81 q 388 32 344 10 q 301 -11 247 -11 q 193 -11 155 11 q 117 33 92 69 q 68 105 56 151 q 44 197 44 244 q 44 293 56 339 q 68 384 93 418 q 118 453 156 474 q 195 495 250 495 q 274 495 300 489 q 325 484 347 473 q 370 462 389 445 q 409 429 422 406 l 422 660 q 422 678 434 687 q 446 696 460 696 q 475 696 488 687 q 500 678 500 660 z m 271 434 q 230 434 203 418 q 175 402 158 375 q 142 349 134 315 q 127 282 127 248 q 127 229 129 204 q 132 180 138 158 q 144 136 154 116 q 164 97 179 82 q 194 67 215 58 q 235 50 263 50 q 309 50 339 66 q 369 82 387 109 q 405 137 413 173 q 420 210 420 251 q 420 287 412 320 q 404 353 387 379 q 369 404 341 419 q 312 434 271 434 z"},"1":{"x_min":0,"x_max":571,"ha":571,"o":"m 161 533 q 152 528 144 528 q 130 528 120 538 q 111 548 111 561 q 111 567 114 574 q 118 580 125 585 l 290 689 q 295 693 301 694 q 308 696 314 696 q 330 696 342 686 q 355 676 355 654 l 355 41 q 355 30 351 23 q 348 15 342 10 q 335 5 328 2 q 320 0 312 0 q 304 0 296 2 q 289 5 282 10 q 276 15 273 23 q 269 30 269 41 l 269 604 z"},"5":{"x_min":0,"x_max":571,"ha":571,"o":"m 89 658 q 89 675 99 686 q 109 696 130 696 l 456 696 q 473 696 481 686 q 490 675 490 662 q 490 649 481 638 q 473 627 456 627 l 158 627 l 157 382 q 188 415 227 433 q 266 451 312 451 q 361 451 400 433 q 439 416 466 385 q 494 354 509 313 q 523 272 523 223 q 523 171 507 129 q 490 86 459 55 q 429 24 386 7 q 343 -11 291 -11 q 253 -11 219 -3 q 185 4 157 19 q 128 34 107 57 q 86 81 74 112 q 72 119 70 124 q 69 129 69 135 q 69 150 78 159 q 87 168 100 168 q 108 168 117 163 q 126 157 133 145 q 142 123 157 106 q 172 90 191 79 q 211 68 234 63 q 257 58 282 58 q 321 58 349 71 q 378 83 397 106 q 416 129 425 159 q 434 190 434 227 q 434 262 425 290 q 416 318 398 339 q 381 360 355 372 q 330 384 298 384 q 271 384 250 378 q 229 371 213 361 q 196 351 185 338 q 173 326 167 315 q 159 301 147 294 q 135 287 124 287 q 110 287 100 297 q 89 306 89 325 z"}}}
